<svg xmlns="http://www.w3.org/2000/svg" xmlns:xlink="http://www.w3.org/1999/xlink" viewBox="0 0 77 81" fill="#fff" fill-rule="evenodd" stroke="#000" stroke-linecap="round" stroke-linejoin="round"><use xlink:href="#A" x=".5" y=".5"/><symbol id="A" overflow="visible"><g stroke="none"><path fill="#4b612c" d="M6.5 63.5v-4h4C8.25 55.5 7 52.25 6.25 49H0v-5-9h6.25c.75-3.25 2-6.5 4.25-10.5l-4-4v-4h4l6-6 4.25 4c2.75-2 8-3.75 10.25-4.25V4h7 7v6.25c2.25.5 7.5 2.25 10.25 4.25l4.25-4 6 6h4v4l-4 4c2.25 4 3.5 7.25 4.25 10.5H76v9 5h-6.25c-.75 3.25-2 6.5-4.25 10.5h4v4l-.25.25-9.75 9.75-4.25-4c-2.75 2-8 3.75-10.25 4.25V80h-7-7v-6.25c-2.25-.5-7.5-2.25-10.25-4.25l-4.25 4-9.75-9.75z"/><path fill="#759c3e" d="M38 76h-7v-6.25c-2.25-.5-7.5-2.25-10.25-4.25l-4.25 4-10-10 4-4C8.25 51.5 7 48.25 6.25 45H0v-5-9h6.25c.75-3.25 2-6.5 4.25-10.5l-4-4 10-10 4.25 4c2.75-2 8-3.75 10.25-4.25V0h7 7v6.25c2.25.5 7.5 2.25 10.25 4.25l4.25-4 10 10-4 4c2.25 4 3.5 7.25 4.25 10.5H76v9 5h-6.25c-.75 3.25-2 6.5-4.25 10.5l4 4-10 10-4.25-4c-2.75 2-8 3.75-10.25 4.25V76z"/></g><path d="M51.75 20L48 25.5c-5.5-4-12-4-16.75-1.75C25.5 27 23 31.5 22.5 36H27l-8.25 14-8.25-14h5.25c.5-5.75 2.75-11.75 9.75-16.5 6-4 11.75-4.5 16.5-3.75 3.75.75 6.75 2.25 9.75 4.25z" stroke="none"/><path d="M24.75 56.957l3.75-5.5c5.5 4 12 4 16.75 1.75 5.75-3.25 8.25-7.75 8.75-12.25h-4.5l8.25-14 8.25 14h-5.25c-.5 5.75-2.75 11.75-9.75 16.5-6 4-11.75 4.5-16.5 3.75-3.75-.75-6.75-2.25-9.75-4.25z" stroke="none"/></symbol></svg>