<?xml version="1.0" standalone="no"?>
<!DOCTYPE svg PUBLIC "-//W3C//DTD SVG 20010904//EN"
 "http://www.w3.org/TR/2001/REC-SVG-20010904/DTD/svg10.dtd">
<svg version="1.0" xmlns="http://www.w3.org/2000/svg"
 width="1024.000000pt" height="1024.000000pt" viewBox="0 0 1024.000000 1024.000000"
 preserveAspectRatio="xMidYMid meet">

<g transform="translate(0.000000,1024.000000) scale(0.100000,-0.100000)"
fill="#F44336" stroke="none">
<path d="M2216 9310 c-38 -12 -64 -37 -88 -84 -61 -119 75 -262 191 -202 38
20 91 82 93 109 5 82 -22 136 -86 166 -45 22 -64 24 -110 11z"/>
<path d="M2950 9271 c-144 -47 -229 -171 -218 -315 7 -80 34 -131 103 -194
153 -141 391 -89 476 103 63 140 -5 317 -147 386 -47 22 -171 34 -214 20z"/>
<path d="M1546 8989 c-57 -45 -18 -143 56 -141 23 1 41 10 61 32 34 38 34 70
1 104 -33 32 -81 34 -118 5z"/>
<path d="M1550 8547 c-50 -26 -90 -90 -90 -144 0 -72 64 -151 140 -174 33 -10
47 -9 84 5 54 21 113 83 121 129 20 104 -72 207 -186 207 -14 0 -45 -10 -69
-23z"/>
<path d="M2970 8504 c-19 -2 -83 -11 -142 -20 l-108 -17 0 -36 c0 -67 29 -199
60 -278 60 -150 127 -256 317 -499 239 -307 324 -474 384 -754 20 -92 23 -134
23 -345 1 -202 -3 -264 -22 -390 -13 -82 -25 -155 -27 -160 -4 -14 -151 -2
-260 20 -484 98 -833 385 -969 795 -43 130 -60 250 -59 425 0 230 37 419 127
649 67 172 178 377 258 479 17 21 29 39 27 41 -7 7 -182 -55 -263 -92 -112
-53 -303 -170 -414 -254 -313 -239 -603 -651 -740 -1053 -81 -237 -111 -416
-119 -705 -12 -480 76 -831 308 -1232 140 -240 210 -320 753 -863 594 -594
950 -945 1736 -1710 322 -313 713 -696 871 -852 157 -155 298 -287 313 -293
40 -15 93 -12 133 6 19 10 240 226 517 506 l484 490 -99 137 c-54 75 -135 190
-180 256 -169 246 -302 334 -506 335 -40 0 -109 -7 -155 -17 l-81 -16 -101
-102 c-84 -84 -115 -108 -186 -143 -87 -43 -201 -72 -285 -72 -83 0 -198 29
-284 71 -162 80 -280 232 -328 424 -27 111 -23 332 10 456 28 107 87 232 156
329 25 36 337 360 692 721 l647 655 99 27 c54 14 110 29 124 31 59 12 142 235
143 381 0 98 -21 186 -91 377 -29 81 -58 171 -64 200 -15 68 -6 188 20 260 41
119 75 155 335 357 132 103 275 213 316 243 l75 56 107 4 c104 3 108 2 102
-17 -4 -11 -89 -185 -190 -387 -101 -203 -184 -379 -184 -392 0 -22 23 -36
198 -127 108 -56 241 -126 295 -156 91 -51 100 -54 116 -39 9 9 105 193 212
411 107 217 197 395 200 395 3 0 31 -46 64 -101 41 -72 59 -114 63 -148 5 -57
-25 -630 -38 -726 -14 -93 -65 -197 -132 -265 -73 -74 -162 -114 -324 -145
-71 -14 -154 -32 -184 -41 -77 -22 -201 -88 -255 -136 -88 -77 -173 -219 -226
-377 l-29 -83 84 -82 c65 -63 91 -98 119 -156 55 -114 68 -175 73 -355 3 -88
10 -182 16 -210 30 -138 130 -266 258 -330 91 -45 299 -161 477 -267 73 -43
137 -78 141 -78 9 0 1092 1084 1188 1190 301 333 495 746 566 1205 27 179 29
474 4 640 -146 959 -775 1675 -1671 1899 -174 44 -417 62 -605 47 -418 -36
-828 -195 -1140 -444 -242 -193 -424 -415 -565 -690 l-61 -118 -43 87 c-60
120 -204 333 -298 440 -334 377 -800 632 -1298 709 -96 15 -413 28 -485 19z
m920 -1518 c157 -28 390 -123 542 -221 370 -239 544 -579 508 -991 -10 -111
-12 -121 -41 -238 -16 -60 -121 -341 -133 -353 -7 -7 -226 51 -286 75 -218 92
-392 261 -471 458 -69 173 -77 335 -29 620 33 191 33 255 3 364 -26 97 -103
203 -197 272 l-39 28 34 0 c19 -1 68 -7 109 -14z m-1384 -1201 c35 -46 136
-122 201 -151 116 -52 203 -66 458 -74 315 -11 418 -31 581 -113 197 -99 374
-305 492 -571 l43 -99 -28 -24 c-216 -181 -460 -273 -723 -273 -173 0 -312 34
-463 114 -253 132 -464 400 -565 717 -62 191 -91 394 -77 536 l7 78 24 -52
c12 -29 35 -69 50 -88z"/>
<path d="M1033 8220 c-86 -52 -86 -188 0 -240 68 -42 165 -11 201 63 20 44 20
62 -3 114 -34 74 -130 105 -198 63z"/>
<path d="M5450 4953 c-94 -98 -319 -326 -499 -508 -594 -600 -574 -575 -641
-775 -26 -79 -33 -116 -37 -215 -5 -108 -3 -126 17 -179 45 -119 149 -196 266
-196 110 0 183 39 255 137 l41 55 -28 31 c-16 18 -57 62 -92 98 l-64 67 483
488 c266 269 559 566 650 659 l167 170 -45 51 -45 52 -477 -482 c-262 -264
-555 -561 -650 -659 -96 -97 -178 -177 -182 -177 -4 0 -37 34 -75 75 l-67 75
329 333 c181 182 474 478 651 657 l322 325 -46 47 c-26 27 -50 48 -54 48 -3 0
-84 -80 -179 -177z"/>
<path d="M5563 4045 l-540 -545 47 -52 47 -52 90 17 c112 21 243 22 336 1 89
-20 217 -78 288 -132 110 -81 171 -154 434 -517 59 -82 163 -224 230 -315 208
-283 394 -536 575 -784 271 -370 326 -428 485 -506 119 -59 188 -75 335 -75
148 0 214 15 345 79 162 79 272 189 350 351 156 326 90 689 -171 935 -47 44
-151 116 -319 221 -534 334 -1023 631 -1430 869 -258 150 -339 224 -419 380
-76 147 -100 279 -88 480 8 122 8 126 -16 158 -13 17 -28 32 -32 32 -4 0 -250
-245 -547 -545z m2422 -1779 c73 -33 135 -93 175 -168 28 -51 34 -77 38 -140
8 -130 -26 -216 -117 -302 -78 -72 -127 -90 -241 -91 -88 0 -101 3 -162 33
-165 81 -244 263 -189 439 26 85 72 147 144 197 102 70 241 83 352 32z"/>
</g>
</svg>
